<?xml version="1.0" standalone="no"?>
<!DOCTYPE svg PUBLIC "-//W3C//DTD SVG 20010904//EN"
 "http://www.w3.org/TR/2001/REC-SVG-20010904/DTD/svg10.dtd">
<svg version="1.0" xmlns="http://www.w3.org/2000/svg"
 width="497.000000pt" height="497.000000pt" viewBox="0 0 497.000000 497.000000"
 preserveAspectRatio="xMidYMid meet">

<g transform="translate(0.000000,497.000000) scale(0.100000,-0.100000)"
fill="#000000" stroke="none">
<path d="M1275 4055 l-25 -24 0 -304 c0 -327 5 -397 26 -397 11 0 14 64 16
353 l3 352 350 1 c300 1 350 3 353 16 2 12 -29 16 -200 21 -112 4 -270 7 -351
7 -144 0 -149 -1 -172 -25z"/>
<path d="M3097 4073 c-121 -3 -138 -6 -135 -20 3 -14 38 -16 353 -17 l350 -1
3 -352 c2 -288 5 -353 16 -353 21 0 26 77 26 403 l0 298 -25 24 -24 25 -213
-2 c-117 -1 -275 -4 -351 -5z"/>
<path d="M1425 2961 c-134 -77 -204 -227 -157 -334 25 -56 60 -80 117 -80 77
0 128 52 128 129 0 86 -73 138 -153 110 -50 -17 -52 -7 -10 56 31 47 78 88
124 109 27 13 36 39 14 39 -7 0 -36 -13 -63 -29z m11 -224 c21 -19 26 -31 26
-66 -2 -112 -127 -125 -152 -16 -12 51 -7 66 27 87 38 24 67 22 99 -5z"/>
<path d="M1780 2842 c-45 -25 -72 -78 -72 -143 1 -93 57 -153 142 -153 85 0
141 60 142 153 0 94 -59 161 -142 161 -19 0 -51 -8 -70 -18z m147 -63 c7 -13
13 -48 13 -77 0 -82 -28 -121 -87 -122 -45 0 -62 9 -78 41 -20 38 -19 138 0
167 34 48 126 43 152 -9z"/>
<path d="M3671 2257 c1 -190 -2 -350 -5 -356 -5 -8 -114 -11 -357 -11 -292 0
-349 -2 -349 -14 0 -8 7 -17 16 -20 9 -3 168 -6 355 -6 326 0 340 1 359 20 20
20 20 31 18 372 -3 331 -4 353 -21 356 -17 4 -18 -14 -16 -341z"/>
<path d="M2235 2272 c-100 -47 -81 -165 34 -214 66 -28 101 -64 101 -104 0
-70 -82 -99 -164 -58 -33 16 -31 16 -40 -12 -5 -18 -1 -24 25 -33 47 -16 136
-13 175 5 61 29 83 109 46 169 -11 17 -41 41 -68 54 -86 42 -114 68 -114 106
0 59 61 82 134 51 30 -12 34 -12 45 5 10 17 8 21 -16 30 -51 21 -115 21 -158
1z"/>
<path d="M1270 2060 l0 -220 30 0 30 0 0 105 0 105 70 0 c63 0 70 2 70 20 0
18 -7 20 -70 20 l-70 0 0 80 0 80 90 0 c73 0 90 3 90 15 0 13 -20 15 -120 15
l-120 0 0 -220z"/>
<path d="M1710 2059 l0 -220 28 3 c27 3 27 3 24 70 -5 100 0 108 59 108 99 0
159 48 159 127 0 100 -45 133 -180 133 l-90 0 0 -221z m159 180 c62 -22 77
-105 29 -156 -18 -19 -32 -23 -78 -23 l-57 0 0 88 c0 48 2 90 4 95 6 11 66 9
102 -4z"/>
<path d="M2614 1896 c-12 -31 0 -51 31 -51 27 0 30 3 30 30 0 25 -4 30 -28 33
-17 2 -29 -2 -33 -12z"/>
<path d="M1263 1161 c-51 -24 -78 -69 -69 -119 7 -47 39 -78 114 -115 92 -44
117 -83 91 -140 -21 -45 -106 -62 -159 -32 -35 20 -47 18 -53 -6 -7 -28 48
-51 124 -51 67 0 113 21 139 65 47 76 16 145 -88 200 -105 55 -135 104 -92
147 30 30 68 35 119 17 41 -15 46 -15 57 1 11 14 9 19 -13 30 -44 24 -123 25
-170 3z"/>
<path d="M3475 1161 c-77 -35 -117 -112 -117 -227 1 -88 23 -145 76 -191 45
-40 69 -46 150 -41 113 7 175 79 184 214 6 89 -15 158 -63 207 -56 58 -153 74
-230 38z m172 -52 c40 -37 63 -96 63 -164 0 -83 -16 -133 -55 -172 -29 -29
-39 -33 -88 -33 -98 0 -146 66 -147 200 0 93 26 154 80 182 46 25 112 19 147
-13z"/>
<path d="M1580 1150 c0 -18 7 -20 70 -20 l70 0 0 -215 0 -215 30 0 30 0 0 215
0 215 68 0 c73 0 84 4 75 26 -4 11 -38 14 -174 14 -162 0 -169 -1 -169 -20z"/>
<path d="M2070 982 c5 -202 10 -222 65 -258 69 -45 180 -36 233 19 41 43 52
100 52 283 l0 144 -25 0 -25 0 0 -165 c0 -225 -19 -265 -123 -265 -105 0 -117
25 -117 255 l0 175 -32 0 -33 0 5 -188z"/>
<path d="M2603 1149 c4 -13 7 -120 7 -236 l0 -213 88 0 c189 0 259 56 270 216
7 114 -25 186 -101 226 -34 18 -64 23 -156 26 l-114 4 6 -23z m233 -45 c55
-41 69 -70 72 -152 3 -65 0 -84 -20 -121 -35 -68 -64 -85 -150 -85 l-73 -1 -3
194 -2 193 74 -4 c56 -2 82 -9 102 -24z"/>
<path d="M3134 1148 c3 -13 6 -119 6 -235 l0 -213 25 0 25 0 0 235 0 235 -31
0 c-28 0 -31 -3 -25 -22z"/>
</g>
</svg>
